<svg id="71267dfc-1566-4375-9f33-672d339960e1" data-name="Layer 1" xmlns="http://www.w3.org/2000/svg" viewBox="0 0 218.69 43"><defs><style>.\30 49a39c3-7cf4-4245-9c6d-21e1921988be,.\38 9a4aa7b-ad8d-4007-8703-bddac2c1dca8{fill:#fff;}.\38 9a4aa7b-ad8d-4007-8703-bddac2c1dca8{font-size:17.2px;font-family:Montserrat-Bold, Montserrat;font-weight:700;}.b6a343ce-6b85-4b9d-8e59-c32d6052dce0{letter-spacing:-0.01em;}.a1b4f04e-57a0-4528-bba0-9be58c746615{letter-spacing:-0.02em;}</style></defs><title>jh-logo</title><path class="049a39c3-7cf4-4245-9c6d-21e1921988be" d="M55.65,6.5v37h-37V6.5h37m3-3h-43v43h43V3.5Z" transform="translate(-15.65 -3.5)"/><text class="89a4aa7b-ad8d-4007-8703-bddac2c1dca8" transform="translate(51.77 27.48)">JHauso<tspan class="b6a343ce-6b85-4b9d-8e59-c32d6052dce0" x="66.03" y="0">t</tspan><tspan class="a1b4f04e-57a0-4528-bba0-9be58c746615" x="73.31" y="0">t</tspan><tspan x="80.5" y="0">er Design</tspan></text><path class="049a39c3-7cf4-4245-9c6d-21e1921988be" d="M27.81,30.67a4.29,4.29,0,0,1-1.68-1.3l1.55-1.86a2.78,2.78,0,0,0,2.24,1.32q1.7,0,1.7-2V21.11H27.38V18.88h7v7.81A4.54,4.54,0,0,1,33.28,30a4.36,4.36,0,0,1-3.23,1.11A5.46,5.46,0,0,1,27.81,30.67Z" transform="translate(-15.65 -3.5)"/><path class="049a39c3-7cf4-4245-9c6d-21e1921988be" d="M48.18,18.88v12H45.39V26H39.92v4.94H37.14v-12h2.79v4.75h5.47V18.88Z" transform="translate(-15.65 -3.5)"/></svg>